<svg xmlns="http://www.w3.org/2000/svg" version="1.1" viewBox="-5.0 -10.0 110.0 135.0">
 <path d="m8.8125 18.562c0.058594-0.066406 0.12109-0.12891 0.18359-0.19141 1.7578-1.7617 4.1406-2.7461 6.6289-2.7461h68.75c2.4883 0 4.8711 0.98438 6.6289 2.7461 0.082032 0.078125 0.16016 0.16016 0.23438 0.23828l-39.184 31.805c-1.1484 0.92969-2.7891 0.92969-3.9375 0zm84.93 6.0664c0.003906 0.125 0.007812 0.24609 0.007812 0.37109v50c0 2.4844-0.98828 4.8711-2.7461 6.6289-1.7578 1.7578-4.1406 2.7461-6.6289 2.7461h-68.75c-2.4883 0-4.8711-0.98828-6.6289-2.7461-1.7578-1.7578-2.7461-4.1445-2.7461-6.6289v-50c0-0.15234 0.003906-0.30859 0.011719-0.46094l37.922 30.73c3.4414 2.7891 8.3711 2.7891 11.809-0.003906z" fill-rule="evenodd"/>
<text x="0.0" y="117.5" font-size="5.0" font-weight="bold" font-family="Arbeit Regular, Helvetica, Arial-Unicode, Arial, Sans-serif" fill="#000000">Created by Yudhi Restu Pebriyanto</text><text x="0.0" y="122.5" font-size="5.0" font-weight="bold" font-family="Arbeit Regular, Helvetica, Arial-Unicode, Arial, Sans-serif" fill="#000000">from Noun Project</text></svg>